<?xml version="1.0" encoding="UTF-8"?>
<!DOCTYPE svg PUBLIC "-//W3C//DTD SVG 1.1//EN" "http://www.w3.org/Graphics/SVG/1.1/DTD/svg11.dtd">
<!-- Creator: CorelDRAW (评估版) -->
<svg xmlns="http://www.w3.org/2000/svg" xml:space="preserve" width="81.7132mm" height="88.7194mm" version="1.1" style="shape-rendering:geometricPrecision; text-rendering:geometricPrecision; image-rendering:optimizeQuality; fill-rule:evenodd; clip-rule:evenodd"
viewBox="0 0 487.99 529.83"
 xmlns:xlink="http://www.w3.org/1999/xlink"
 xmlns:xodm="http://www.corel.com/coreldraw/odm/2003">
 <defs>
  <style type="text/css">
   <![CDATA[
    .fil2 {fill:none}
    .fil0 {fill:#FEFEFE}
    .fil1 {fill:#FEFEFE;fill-rule:nonzero}
   ]]>
  </style>
 </defs>
 <g id="图层_x0020_1">
  <metadata id="CorelCorpID_0Corel-Layer"/>
  <g id="对话框背景图案">
   <path class="fil0" d="M243.99 86.14c-22.29,21.71 -34,46.26 -40.11,65.42 3.54,4.97 7.96,9.22 13.04,12.54 2.36,-12.78 7.1,-28.33 16.63,-38.1l10.44 11.38c5.95,6.48 7.75,12.72 0,20.23 -10.59,-7.96 -5.83,-14.68 -2.7,-18.82l-4.79 -5c0,0 -7.35,5.37 -7.35,14.77 0,9.4 13.5,20.86 14.85,20.86 1.35,0 13.99,-12.4 13.99,-20.46 0,-8.06 -7.43,-16.51 -7.43,-16.51l-10.4 -10.77c-2.23,-2.31 -2.17,-9.77 3.83,-11.03 6.01,1.26 6.06,8.72 3.83,11.03l-1.63 1.69 6.41 7.94c1.3,-0.65 3.64,-2.11 4.23,-1.5 8.93,9.05 13.1,22.4 15.02,33.78 4.75,-3.24 8.9,-7.31 12.25,-12.01 -6.1,-19.16 -17.82,-43.71 -40.11,-65.42zm-40.77 67.54c-0.81,2.68 -1.52,5.24 -2.12,7.67 4.18,4.68 9.08,8.59 14.47,11.63 0.26,-2.15 0.59,-4.5 1.02,-6.97 -5.16,-3.26 -9.69,-7.44 -13.37,-12.32zm-2.63 9.76c-2.88,12.23 -3.24,20.41 -3.14,21.12 5.74,0.09 11.46,0.43 17.14,1.11 0,0 0.05,-4.31 0.75,-10.77 -0.54,-0.3 -1.08,-0.6 -1.61,-0.91 -4.84,-2.85 -9.27,-6.39 -13.15,-10.54zm71.57 2.07c0.38,2.52 0.65,4.92 0.84,7.12 5.17,-2.99 9.86,-6.79 13.89,-11.29 -0.61,-2.42 -1.31,-4.99 -2.12,-7.67 -3.49,4.64 -7.76,8.64 -12.6,11.83zm0.99 9.09c0.46,6.6 0.23,11.06 0.23,11.06 5.69,-0.67 11.41,-1.01 17.14,-1.11 0.1,-0.71 -0.26,-8.89 -3.14,-21.12 -3.87,4.15 -8.31,7.69 -13.15,10.54 -0.36,0.21 -0.73,0.42 -1.09,0.63z"/>
   <path class="fil0" d="M97.77 339.41c29.95,8.45 57.06,6.32 76.71,2.03 2.54,-5.55 4.01,-11.5 4.34,-17.57 -12.24,4.35 -28.08,8.02 -41.31,4.65l4.63 -14.73c2.64,-8.39 7.14,-13.07 17.52,-10.11 -1.6,13.15 -9.79,12.39 -14.95,11.75l-1.93 6.65c0,0 8.33,3.68 16.47,-1.02 8.14,-4.7 11.31,-22.12 10.64,-23.29 -0.67,-1.17 -17.74,-5.91 -24.72,-1.88 -6.98,4.03 -10.59,14.69 -10.59,14.69l-4.13 14.39c-0.89,3.09 -7.37,6.77 -11.47,2.19 -1.91,-5.84 4.52,-9.61 7.64,-8.84l2.28 0.57 3.67 -9.52c-1.21,-0.8 -3.64,-2.1 -3.42,-2.91 3.37,-12.26 12.85,-22.54 21.75,-29.89 -5.18,-2.5 -10.78,-4.06 -16.52,-4.6 -13.54,14.86 -28.94,37.29 -36.6,67.45zm78.88 1.54c2.73,-0.64 5.3,-1.31 7.7,-1.99 1.96,-5.96 2.9,-12.15 2.83,-18.35 -2,0.85 -4.19,1.73 -6.54,2.61 -0.24,6.1 -1.6,12.11 -3.99,17.74zm9.77 -2.6c12.03,-3.62 19.3,-7.4 19.86,-7.84 -2.79,-5.02 -5.35,-10.14 -7.61,-15.4 0,0 -3.76,2.11 -9.71,4.73 0.01,0.62 0.02,1.23 0.01,1.85 -0.04,5.62 -0.89,11.23 -2.55,16.66zm-33.99 -63.01c1.99,-1.59 3.93,-3.02 5.75,-4.29 -5.17,-2.98 -10.8,-5.14 -16.72,-6.38 -1.8,1.74 -3.66,3.63 -5.58,5.67 5.77,0.71 11.36,2.39 16.55,5zm7.38 -5.41c5.49,-3.7 9.46,-5.73 9.46,-5.73 -3.43,-4.59 -6.58,-9.37 -9.53,-14.29 -0.66,0.27 -7.58,4.67 -16.72,13.28 5.53,1.28 10.82,3.34 15.7,6.12 0.37,0.21 0.73,0.42 1.09,0.63z"/>
   <circle class="fil0" cx="243.99" cy="254.99" r="15.56"/>
   <path class="fil0" d="M390.22 339.41c-29.95,8.45 -57.06,6.32 -76.71,2.03 -2.54,-5.55 -4.01,-11.5 -4.34,-17.57 12.24,4.35 28.08,8.02 41.31,4.65l-4.63 -14.73c-2.64,-8.39 -7.14,-13.07 -17.52,-10.11 1.6,13.15 9.79,12.39 14.95,11.75l1.93 6.65c0,0 -8.33,3.68 -16.47,-1.02 -8.14,-4.7 -11.31,-22.12 -10.64,-23.29 0.67,-1.17 17.74,-5.91 24.72,-1.88 6.98,4.03 10.59,14.69 10.59,14.69l4.13 14.39c0.89,3.09 7.37,6.77 11.47,2.19 1.91,-5.84 -4.52,-9.61 -7.64,-8.84l-2.28 0.57 -3.67 -9.52c1.21,-0.8 3.64,-2.1 3.42,-2.91 -3.37,-12.26 -12.85,-22.54 -21.75,-29.89 5.18,-2.5 10.78,-4.06 16.52,-4.6 13.54,14.86 28.94,37.29 36.6,67.45zm-78.88 1.54c-2.73,-0.64 -5.3,-1.31 -7.7,-1.99 -1.96,-5.96 -2.9,-12.15 -2.83,-18.35 2,0.85 4.19,1.73 6.54,2.61 0.24,6.1 1.6,12.11 3.99,17.74zm-9.77 -2.6c-12.03,-3.62 -19.3,-7.4 -19.86,-7.84 2.79,-5.02 5.35,-10.14 7.61,-15.4 0,0 3.76,2.11 9.71,4.73 -0.01,0.62 -0.02,1.23 -0.01,1.85 0.04,5.62 0.89,11.23 2.55,16.66zm33.99 -63.01c-1.99,-1.59 -3.93,-3.02 -5.75,-4.29 5.17,-2.98 10.8,-5.14 16.72,-6.38 1.8,1.74 3.66,3.63 5.58,5.67 -5.77,0.71 -11.36,2.39 -16.55,5zm-7.38 -5.41c-5.49,-3.7 -9.46,-5.73 -9.46,-5.73 3.43,-4.59 6.58,-9.37 9.53,-14.29 0.66,0.27 7.58,4.67 16.72,13.28 -5.53,1.28 -10.82,3.34 -15.7,6.12 -0.37,0.21 -0.73,0.42 -1.09,0.63z"/>
   <path class="fil0" d="M132.04 190.35c14.33,-24.76 36.63,-44.32 63.39,-55.18 0.39,-0.13 1.28,-0.44 2.31,-0.57 3.73,-0.47 3.67,3.32 2.1,6.64 -0.68,1.44 -1.31,4.65 -0.55,6.36 8.7,15.82 25.37,26.25 44.7,26.25 19.33,0 36,-10.43 44.7,-26.25 0.77,-1.71 0.13,-4.92 -0.55,-6.36 -1.57,-3.33 -1.63,-7.11 2.1,-6.64 1.03,0.13 1.92,0.44 2.31,0.57 26.76,10.86 49.07,30.42 63.39,55.18 14.28,24.79 20.07,53.88 16.09,82.49 -0.08,0.4 -0.26,1.33 -0.66,2.28 -1.46,3.46 -4.71,1.52 -6.8,-1.5 -0.91,-1.31 -3.37,-3.46 -5.23,-3.65 -18.05,-0.37 -35.42,8.84 -45.08,25.58 -9.66,16.74 -8.96,36.39 0.39,51.84 1.1,1.52 4.19,2.57 5.78,2.71 3.66,0.31 6.97,2.14 4.7,5.14 -0.62,0.83 -1.34,1.44 -1.65,1.71 -22.78,17.75 -50.88,27.28 -79.48,27.31 -28.6,-0.03 -56.7,-9.56 -79.48,-27.31 -0.31,-0.27 -1.02,-0.89 -1.65,-1.71 -2.27,-3 1.04,-4.84 4.7,-5.14 1.59,-0.13 4.69,-1.19 5.78,-2.71 9.35,-15.44 10.05,-35.1 0.39,-51.84 -9.67,-16.74 -27.03,-25.96 -45.08,-25.58 -1.86,0.19 -4.32,2.34 -5.23,3.65 -2.1,3.02 -5.34,4.97 -6.8,1.5 -0.4,-0.95 -0.58,-1.88 -0.66,-2.28 -3.98,-28.61 1.81,-57.7 16.09,-82.49zm5.65 3.26c12.02,-20.82 30.08,-38.01 52.35,-48.91l3.56 6.04c10.15,18.44 29.33,29.62 50.4,29.62 21.07,0 40.26,-11.18 50.4,-29.62l3.56 -6.04c22.27,10.9 40.33,28.09 52.35,48.91 12.02,20.82 17.88,45.05 16.18,69.79l-7.01 0.06c-21.05,-0.44 -40.32,10.59 -50.85,28.84 -10.54,18.25 -10.45,40.45 0.45,58.46l3.45 6.1c-20.57,13.84 -44.49,20.88 -68.53,20.88 -24.04,0 -47.95,-7.04 -68.53,-20.88l3.45 -6.1c10.9,-18.01 10.99,-40.21 0.45,-58.46 -10.54,-18.25 -29.81,-29.27 -50.85,-28.84l-7.01 -0.06c-1.7,-24.74 4.16,-48.97 16.18,-69.79z"/>
   <path class="fil1" d="M477.64 257.32c-4.07,0.92 -10.89,1.5 -24.75,12.59l-1.77 1.42 -1.39 -1.8c-6.42,-8.28 -15.42,-11.22 -18.37,-12.19l-0.78 -0.27 -5.82 -2.1 5.82 -2.1 0.78 -0.27c2.95,-0.96 11.94,-3.9 18.37,-12.19l1.39 -1.8 1.77 1.42c13.86,11.1 20.68,11.68 24.75,12.59l10.34 2.34 -10.34 2.34zm-25.82 7.75c7.21,-5.58 12.6,-8.49 16.73,-10.09 -4.13,-1.6 -9.52,-4.51 -16.73,-10.09 -4.62,5.24 -10.01,8.31 -14.06,10.09 4.05,1.78 9.44,4.84 14.06,10.09z"/>
   <path class="fil1" d="M10.34 252.65c4.07,-0.92 10.89,-1.5 24.75,-12.59l1.77 -1.42 1.39 1.8c6.42,8.28 15.42,11.22 18.37,12.19l0.78 0.27 5.82 2.1 -5.82 2.1 -0.78 0.27c-2.95,0.96 -11.94,3.9 -18.37,12.19l-1.39 1.8 -1.77 -1.42c-13.86,-11.1 -20.68,-11.68 -24.75,-12.59l-10.34 -2.34 10.34 -2.34zm25.82 -7.75c-7.21,5.58 -12.6,8.49 -16.73,10.09 4.13,1.6 9.52,4.51 16.73,10.09 4.62,-5.24 10.01,-8.31 14.06,-10.09 -4.05,-1.78 -9.44,-4.84 -14.06,-10.09z"/>
   <path class="fil0" d="M243.99 422.85c0,-6.73 8.94,-13.11 11.77,-13.11 -2.83,0 -11.77,-7.44 -11.77,-15.41 0,7.97 -8.94,15.41 -11.77,15.41 2.83,0 11.77,6.38 11.77,13.11z"/>
   <path class="fil0" d="M243.99 529.83c3.04,-20.85 6.45,-34.33 10.56,-45.44l-10.56 -8.44 -10.56 8.44c4.11,11.11 7.52,24.6 10.56,45.44zm0 -21.58c1.86,-7.21 3.56,-13.91 5.1,-18.94l-5.1 -3.84 -5.1 3.84c1.54,5.04 3.24,11.73 5.1,18.94z"/>
   <path class="fil0" d="M243.99 422.85c0,-6.73 -8.94,-13.11 -11.77,-13.11 2.83,0 11.77,-7.44 11.77,-15.41 0,7.97 8.94,15.41 11.77,15.41 -2.83,0 -11.77,6.38 -11.77,13.11z"/>
   <path class="fil0" d="M253.17 417.66l3.12 -2.31c8.66,10.86 34.47,28.05 34.47,28.05 4.41,2.77 10.47,0.86 10.47,0.86l9.61 -3.03c14.04,-4.73 -23.12,-16.35 -41.73,-19.94 -2.4,-1.51 -4.55,-3.22 -6.34,-5.25 51.88,6.16 65.6,21.13 64.54,22.7 -1.86,2.73 -24.11,13.42 -30.13,12.91 -8.33,-1.87 -31.39,-18.49 -44.01,-33.99zm60.25 41.12c13.1,-4.78 25.6,-10.84 37.35,-18.01 2.51,-1.57 -1,-5.5 -5.33,-3.43 -14.04,8.33 -29.15,14.99 -45.07,19.69 -0.51,0.1 -4.69,1.29 -7.32,0.54 -2.63,-0.75 -3.89,-1.49 -6.89,-3.35 -3,-1.86 -31.59,-24.17 -36.4,-32.79l-3.71 4.08c0.56,1.15 1.21,2.25 2.34,3.65 -0.06,0.09 -0.04,0.55 -2.98,3.95 1.44,1.66 3.24,3.64 5.45,5.86 1.87,-2.07 1.92,-2.28 2.84,-3.71 8.97,8.87 21.66,18.34 28.49,23.28l0.17 0.12 0.15 0.09c2.77,1.74 6.37,3.61 9.53,4.47 4.35,1.17 11.36,-0.73 15.65,-2.21l5.73 -2.23zm-76.58 -16.49c-6.61,6.66 -15.06,13.76 -29.48,22.65 1.14,2.22 3.16,3.19 7.67,3.69l12.68 11.91 14.79 -11.9 -6.09 -4.9 -6.66 5.37 -6.5 -5.59c7.12,-5.04 13.06,-9.84 19.03,-15.64 -2.04,-1.98 -3.88,-3.87 -5.45,-5.6zm14.4 19.3l2.69 -2.17 -6.08 -4.91 -2.7 2.18 6.09 4.9z"/>
   <path class="fil0" d="M234.82 417.66l-3.12 -2.31c-8.66,10.86 -34.47,28.05 -34.47,28.05 -4.41,2.77 -10.47,0.86 -10.47,0.86l-9.61 -3.03c-14.04,-4.73 23.12,-16.35 41.73,-19.94 2.4,-1.51 4.55,-3.22 6.34,-5.25 -51.88,6.16 -65.6,21.13 -64.54,22.7 1.86,2.73 24.11,13.42 30.13,12.91 8.33,-1.87 31.39,-18.49 44.01,-33.99zm-60.25 41.12c-13.1,-4.78 -25.6,-10.84 -37.35,-18.01 -2.51,-1.57 1,-5.5 5.33,-3.43 14.04,8.33 29.15,14.99 45.07,19.69 0.51,0.1 4.69,1.29 7.32,0.54 2.63,-0.75 3.89,-1.49 6.89,-3.35 3,-1.86 31.59,-24.17 36.4,-32.79l3.71 4.08c-0.56,1.15 -1.21,2.25 -2.34,3.65 0.18,0.26 12,17.88 41.03,35.79 -1.14,2.22 -3.16,3.19 -7.67,3.69l-12.68 11.91 -25.07 -20.16 6.08 -4.91 16.95 13.66 6.5 -5.59c-12.46,-8.81 -26.52,-22.13 -30.45,-28.27 -8.97,8.87 -21.66,18.34 -28.49,23.28l-0.17 0.12 -0.15 0.09c-2.77,1.74 -6.37,3.61 -9.53,4.47 -4.35,1.17 -11.36,-0.73 -15.65,-2.21l-5.73 -2.23z"/>
   <path class="fil0" d="M243.99 422.85c0,-6.73 -8.94,-13.11 -11.77,-13.11 2.83,0 11.77,-7.44 11.77,-15.41 0,7.97 8.94,15.41 11.77,15.41 -2.83,0 -11.77,6.38 -11.77,13.11z"/>
   <g>
    <path class="fil0" d="M367.61 151.24c-5.04,4.45 -15.74,1.97 -17.62,-0.15 1.87,2.12 2.21,13.75 -3.76,19.03 5.97,-5.27 17.47,-3.5 19.34,-1.38 -1.87,-2.12 -3.01,-13.05 2.03,-17.5z"/>
    <path class="fil0" d="M447.79 80.43c-17.64,11.52 -30,17.89 -41.05,22.17l0.66 13.5 13.32 2.33c5.61,-10.43 13.46,-21.92 27.07,-38zm-16.18 14.29c-6.64,3.38 -12.78,6.54 -17.57,8.71l0.5 6.36 6.25 1.28c2.76,-4.49 6.65,-10.19 10.82,-16.36z"/>
    <path class="fil0" d="M367.61 151.24c-5.04,4.45 -3.9,15.38 -2.03,17.5 -1.87,-2.12 -13.37,-3.9 -19.34,1.38 5.97,-5.27 5.63,-16.9 3.76,-19.03 1.87,2.12 12.57,4.6 17.62,0.15z"/>
    <path class="fil0" d="M357.64 147.8l-3.79 -0.81c2.41,-13.68 -1.79,-44.4 -1.79,-44.4 -0.85,-5.14 -6.29,-8.41 -6.29,-8.41l-8.63 -5.2c-12.84,-7.39 3.05,28.15 12.67,44.48 0.46,2.79 0.6,5.54 0.26,8.22 -29.72,-42.96 -27.59,-63.16 -25.71,-63.4 3.27,-0.42 26.02,9.19 29.63,14.04 4.11,7.48 6.92,35.76 3.65,55.48zm-9.06 -72.38c-12.25,-6.66 -16.78,-9.41 -29.93,-13.47 -2.84,-0.84 -3.46,4.39 0.95,6.27 15.23,5.21 22.23,9.32 36.3,18.15 0.41,0.32 4.08,2.66 5.25,5.13 1.17,2.47 1.46,3.9 2.05,7.38 0.59,3.48 2.79,39.68 -0.49,48.99l5.51 0.08c0.49,-1.18 0.88,-2.39 1.18,-4.16 0.11,-0.01 0.44,-0.34 4.93,-0.39 0.29,-2.18 0.58,-4.84 0.79,-7.96 -2.79,-0.03 -2.98,0.07 -4.66,0.33 0.71,-12.59 -0.59,-28.38 -1.41,-36.76l-0.02 -0.21 -0.03 -0.17c-0.53,-3.23 -1.51,-7.17 -2.96,-10.1 -2,-4.04 -8.07,-8.03 -12.01,-10.27l-5.46 -2.82zm38.33 68.32c9.37,0.55 20.29,2.18 36.49,7.1 0.91,-2.33 0.3,-4.48 -2.31,-8.19l0.54 -17.39 -18.71 -3.21 0.36 7.8 8.44 1.44 0.11 8.57c-8.49,-2 -16.02,-3.27 -24.32,-3.91 -0.13,2.84 -0.33,5.48 -0.59,7.79zm4.94 -23.57l-3.41 -0.58 0.34 7.81 3.42 0.58 -0.35 -7.81z"/>
    <path class="fil0" d="M369.79 161.56l0.33 3.86c13.88,-0.7 43.84,7.27 43.84,7.27 4.99,1.48 7.57,7.28 7.57,7.28l4.1 9.21c5.74,13.66 -27.56,-6.51 -42.57,-18.07 -2.72,-0.8 -5.43,-1.28 -8.13,-1.27 38.96,34.81 59.26,35.18 59.74,33.35 0.82,-3.2 -5.9,-26.96 -10.27,-31.13 -6.91,-5 -34.63,-11.29 -54.6,-10.48zm70.71 17.94c5.09,12.98 8.82,36.9 11.23,50.45 0.48,2.92 -4.78,2.89 -6.1,-1.72 -3.05,-16.03 -8.06,-42.3 -15.08,-57.35 -0.26,-0.44 -2.14,-4.38 -4.44,-5.84 -2.3,-1.47 -3.69,-1.93 -7.07,-2.95 -3.38,-1.01 -39.03,-7.68 -48.67,-5.57l0.6 -5.48c1.23,-0.34 2.48,-0.58 4.28,-0.66 0.08,-0.31 5.46,-20.83 -0.34,-54.44 2.42,-0.61 4.49,0.26 7.84,3.31l17.32 1.62 1.48 32.14 -7.71 -1.3 -0.99 -21.75 -8.49 -1.17c1.64,15.17 0.97,34.53 -1.03,41.54 12.58,0.85 28.09,4.09 36.31,5.95l0.21 0.05 0.17 0.05c3.14,0.93 6.93,2.38 9.66,4.19 3.76,2.49 6.97,9 8.7,13.19l2.12 5.76z"/>
    <path class="fil0" d="M367.61 151.24c-5.04,4.45 -3.9,15.38 -2.03,17.5 -1.87,-2.12 -13.37,-3.9 -19.34,1.38 5.97,-5.27 5.63,-16.9 3.76,-19.03 1.87,2.12 12.57,4.6 17.62,0.15z"/>
   </g>
   <line class="fil2" x1="243.99" y1="44.49" x2="243.99" y2= "105.59" />
   <g>
    <path class="fil0" d="M120.38 151.24c5.04,4.45 15.74,1.97 17.62,-0.15 -1.87,2.12 -2.21,13.75 3.76,19.03 -5.97,-5.27 -17.47,-3.5 -19.34,-1.38 1.87,-2.12 3.01,-13.05 -2.03,-17.5z"/>
    <path class="fil0" d="M40.2 80.43c17.64,11.52 30,17.89 41.05,22.17l-0.66 13.5 -13.32 2.33c-5.61,-10.43 -13.46,-21.92 -27.07,-38zm16.18 14.29c6.64,3.38 12.78,6.54 17.57,8.71l-0.5 6.36 -6.25 1.28c-2.76,-4.49 -6.65,-10.19 -10.82,-16.36z"/>
    <path class="fil0" d="M120.38 151.24c5.04,4.45 3.9,15.38 2.03,17.5 1.87,-2.12 13.37,-3.9 19.34,1.38 -5.97,-5.27 -5.63,-16.9 -3.76,-19.03 -1.87,2.12 -12.57,4.6 -17.62,0.15z"/>
    <path class="fil0" d="M130.34 147.8l3.79 -0.81c-2.41,-13.68 1.79,-44.4 1.79,-44.4 0.85,-5.14 6.29,-8.41 6.29,-8.41l8.63 -5.2c12.84,-7.39 -3.05,28.15 -12.67,44.48 -0.46,2.79 -0.6,5.54 -0.26,8.22 29.72,-42.96 27.59,-63.16 25.71,-63.4 -3.27,-0.42 -26.02,9.19 -29.63,14.04 -4.11,7.48 -6.92,35.76 -3.65,55.48zm9.06 -72.38c12.25,-6.66 16.78,-9.41 29.93,-13.47 2.84,-0.84 3.46,4.39 -0.95,6.27 -15.23,5.21 -22.23,9.32 -36.3,18.15 -0.41,0.32 -4.08,2.66 -5.25,5.13 -1.17,2.47 -1.46,3.9 -2.05,7.38 -0.59,3.48 -2.79,39.68 0.49,48.99l-5.51 0.08c-0.49,-1.18 -0.88,-2.39 -1.18,-4.16 -0.11,-0.01 -0.44,-0.34 -4.93,-0.39 -0.29,-2.18 -0.58,-4.84 -0.79,-7.96 2.79,-0.03 2.98,0.07 4.66,0.33 -0.71,-12.59 0.59,-28.38 1.41,-36.76l0.02 -0.21 0.03 -0.17c0.53,-3.23 1.51,-7.17 2.96,-10.1 2,-4.04 8.07,-8.03 12.01,-10.27l5.46 -2.82zm-38.33 68.32c-9.37,0.55 -20.29,2.18 -36.49,7.1 -0.91,-2.33 -0.3,-4.48 2.31,-8.19l-0.54 -17.39 18.71 -3.21 -0.36 7.8 -8.44 1.44 -0.11 8.57c8.49,-2 16.02,-3.27 24.32,-3.91 0.13,2.84 0.33,5.48 0.59,7.79zm-4.94 -23.57l3.41 -0.58 -0.34 7.81 -3.42 0.58 0.35 -7.81z"/>
    <path class="fil0" d="M118.19 161.56l-0.33 3.86c-13.88,-0.7 -43.84,7.27 -43.84,7.27 -4.99,1.48 -7.57,7.28 -7.57,7.28l-4.1 9.21c-5.74,13.66 27.56,-6.51 42.57,-18.07 2.72,-0.8 5.43,-1.28 8.13,-1.27 -38.96,34.81 -59.26,35.18 -59.74,33.35 -0.82,-3.2 5.9,-26.96 10.27,-31.13 6.91,-5 34.63,-11.29 54.6,-10.48zm-70.71 17.94c-5.09,12.98 -8.82,36.9 -11.23,50.45 -0.48,2.92 4.78,2.89 6.1,-1.72 3.05,-16.03 8.06,-42.3 15.08,-57.35 0.26,-0.44 2.14,-4.38 4.44,-5.84 2.3,-1.47 3.69,-1.93 7.07,-2.95 3.38,-1.01 39.03,-7.68 48.67,-5.57l-0.6 -5.48c-1.23,-0.34 -2.48,-0.58 -4.28,-0.66 -0.08,-0.31 -5.46,-20.83 0.34,-54.44 -2.42,-0.61 -4.49,0.26 -7.84,3.31l-17.32 1.62 -1.48 32.14 7.71 -1.3 0.99 -21.75 8.49 -1.17c-1.64,15.17 -0.97,34.53 1.03,41.54 -12.58,0.85 -28.09,4.09 -36.31,5.95l-0.21 0.05 -0.17 0.05c-3.14,0.93 -6.93,2.38 -9.66,4.19 -3.76,2.49 -6.97,9 -8.7,13.19l-2.12 5.76z"/>
    <path class="fil0" d="M120.38 151.24c5.04,4.45 3.9,15.38 2.03,17.5 1.87,-2.12 13.37,-3.9 19.34,1.38 -5.97,-5.27 -5.63,-16.9 -3.76,-19.03 -1.87,2.12 -12.57,4.6 -17.62,0.15z"/>
   </g>
   <line class="fil2" x1="243.99" y1="44.49" x2="243.99" y2= "105.59" />
   <line class="fil2" x1="243.99" y1="44.49" x2="243.99" y2= "105.59" />
   <line class="fil2" x1="243.99" y1="44.49" x2="243.99" y2= "105.59" />
   <path class="fil0" d="M243.99 63.82c0,0 6.35,-7.16 10.27,-8.84l-10.27 -18.78 -10.27 18.78c3.92,1.68 10.27,8.84 10.27,8.84zm32.82 -8.61c-0.45,0.57 0.28,3.19 4.26,5.18 2.16,1.08 4.65,1.9 9.69,1.9 1.84,0 3.99,-0.38 4.56,-0.89 1.53,-1.37 -1.18,-2.92 -2.31,-3.53 -1.1,-0.59 -3.18,-1.08 -6.4,-1.96 -1.67,-0.46 -3.53,-0.81 -5.07,-0.97 -2.46,-0.25 -4.31,-0.24 -4.73,0.26zm-32.82 -36.94l17.97 32.92c0,0 9.15,17.35 24.39,18.52 15.24,1.17 21.07,-4.37 21.07,-5.87 0,-1.5 -0.23,-2.15 -2.76,-4.85 -2.53,-2.7 -7.53,-9.13 -17.38,-10.86 -6.35,-1.12 -14.65,3.72 -14.65,3.72l-28.64 -51.85 -28.64 51.85c0,0 -8.3,-4.84 -14.65,-3.72 -9.85,1.73 -14.85,8.16 -17.38,10.86 -2.53,2.7 -2.76,3.35 -2.76,4.85 0,1.5 5.82,7.04 21.07,5.87 15.24,-1.17 24.39,-18.52 24.39,-18.52l17.97 -32.92zm0 58.8c0,0 6.12,-15.14 17.97,-20.41l-17.97 -32.92 -17.97 32.92c11.85,5.27 17.97,20.41 17.97,20.41zm-32.82 -21.85c0.45,0.57 -0.28,3.19 -4.26,5.18 -2.16,1.08 -4.65,1.9 -9.69,1.9 -1.84,0 -3.99,-0.38 -4.56,-0.89 -1.53,-1.37 1.18,-2.92 2.31,-3.53 1.1,-0.59 3.18,-1.08 6.4,-1.96 1.67,-0.46 3.53,-0.81 5.07,-0.97 2.46,-0.25 4.31,-0.24 4.73,0.26z"/>
   <path class="fil0" d="M397.07 381.59c0,0 1.46,9.46 0.25,13.55l21.01 4.08 -7.9 -19.89c-3.79,1.94 -13.36,2.26 -13.36,2.26zm-14.32 30.76c-0.15,-0.71 -2.63,-1.82 -6.7,-0.03 -2.21,0.97 -4.43,2.37 -7.64,6.24 -1.17,1.41 -2.25,3.32 -2.23,4.08 0.08,2.05 3.01,0.95 4.19,0.48 1.15,-0.47 2.86,-1.76 5.59,-3.68 1.42,-0.99 2.87,-2.2 3.98,-3.28 1.76,-1.74 2.93,-3.17 2.81,-3.81zm49.39 -1.68l-36.81 -7.17c0,0 -19.19,-4.03 -29.83,6.95 -10.63,10.99 -10.08,19.01 -8.93,19.96 1.15,0.96 1.8,1.19 5.5,0.97 3.7,-0.23 11.83,0.03 19.46,-6.45 4.91,-4.18 6.49,-13.65 6.49,-13.65l58.19 11.05 -21.64 -55.14c0,0 9.02,-3.3 12.21,-8.9 4.95,-8.69 3.19,-16.64 2.73,-20.31 -0.46,-3.67 -0.81,-4.27 -1.97,-5.22 -1.15,-0.96 -9.13,-0.01 -17.96,12.47 -8.83,12.48 -1.31,30.6 -1.31,30.6l13.87 34.85zm-45.26 -37.53c0,0 7.75,14.38 4.24,26.86l36.81 7.17 -13.87 -34.85c-11.62,5.76 -27.18,0.81 -27.18,0.81zm37.77 -11.31c-0.72,-0.02 -2.27,-2.25 -1.27,-6.58 0.55,-2.35 1.5,-4.79 4.72,-8.67 1.17,-1.41 2.84,-2.83 3.6,-2.94 2.02,-0.3 1.49,2.78 1.24,4.03 -0.25,1.22 -1.2,3.14 -2.58,6.18 -0.71,1.58 -1.62,3.23 -2.49,4.52 -1.38,2.05 -2.57,3.47 -3.22,3.47z"/>
   <path class="fil0" d="M90.91 381.59c0,0 -1.46,9.46 -0.25,13.55l-21.01 4.08 7.9 -19.89c3.79,1.94 13.36,2.26 13.36,2.26zm14.32 30.76c0.15,-0.71 2.63,-1.82 6.7,-0.03 2.21,0.97 4.43,2.37 7.64,6.24 1.17,1.41 2.25,3.32 2.23,4.08 -0.08,2.05 -3.01,0.95 -4.19,0.48 -1.15,-0.47 -2.86,-1.76 -5.59,-3.68 -1.42,-0.99 -2.87,-2.2 -3.98,-3.28 -1.76,-1.74 -2.93,-3.17 -2.81,-3.81zm-49.39 -1.68l36.81 -7.17c0,0 19.19,-4.03 29.83,6.95 10.63,10.99 10.08,19.01 8.93,19.96 -1.15,0.96 -1.8,1.19 -5.5,0.97 -3.7,-0.23 -11.83,0.03 -19.46,-6.45 -4.91,-4.18 -6.49,-13.65 -6.49,-13.65l-58.19 11.05 21.64 -55.14c0,0 -9.02,-3.3 -12.21,-8.9 -4.95,-8.69 -3.19,-16.64 -2.73,-20.31 0.46,-3.67 0.81,-4.27 1.97,-5.22 1.15,-0.96 9.13,-0.01 17.96,12.47 8.83,12.48 1.31,30.6 1.31,30.6l-13.87 34.85zm45.26 -37.53c0,0 -7.75,14.38 -4.24,26.86l-36.81 7.17 13.87 -34.85c11.62,5.76 27.18,0.81 27.18,0.81zm-37.77 -11.31c0.72,-0.02 2.27,-2.25 1.27,-6.58 -0.55,-2.35 -1.5,-4.79 -4.72,-8.67 -1.17,-1.41 -2.84,-2.83 -3.6,-2.94 -2.02,-0.3 -1.49,2.78 -1.24,4.03 0.25,1.22 1.2,3.14 2.58,6.18 0.71,1.58 1.62,3.23 2.49,4.52 1.38,2.05 2.57,3.47 3.22,3.47z"/>
   <path class="fil1" d="M444.22 325.87c-0.57,1.54 -2.29,2.32 -3.83,1.75 -1.54,-0.57 -2.32,-2.29 -1.75,-3.83 0.02,-0.06 7.85,-21.09 8.24,-42.57 0.03,-1.64 1.38,-2.95 3.02,-2.93 1.64,0.03 2.95,1.38 2.93,3.02 -0.4,22.51 -8.58,44.49 -8.61,44.55z"/>
   <path class="fil1" d="M49.34 323.8c0.57,1.54 -0.21,3.25 -1.75,3.83 -1.54,0.57 -3.25,-0.21 -3.83,-1.75 -0.02,-0.06 -8.21,-22.04 -8.61,-44.55 -0.03,-1.64 1.29,-2.99 2.93,-3.02 1.64,-0.03 2.99,1.29 3.02,2.93 0.38,21.48 8.21,42.51 8.24,42.57z"/>
   <path class="fil0" d="M149.61 200.5c-4.03,6.99 2.4,56.13 43.31,81.82l-0 -0.19c0,-4.19 0.29,-8.28 0.81,-12.26 0.56,-4.2 1.38,-8.22 2.42,-12.06l0.2 -0.74c-8.39,-6.73 -15.22,-14.99 -19.9,-24.93 -2.01,-4.27 -6.6,-15.7 -4.76,-18.89 1.84,-3.19 14.03,-4.93 18.74,-5.32 11.61,-0.98 22.78,1.08 33.34,5.49l0 -0c3.4,1.42 6.74,3.09 10.01,4.97 3.6,2.08 7.85,5.04 11.05,7.54 6.62,5.34 12.25,11.64 16.61,18.97 4.05,7.23 6.66,15 8.01,23.13 1.7,-0.69 3.38,-1.45 5.05,-2.26 1.79,-0.88 3.59,-1.84 5.4,-2.88 1.65,-0.95 3.23,-1.93 4.72,-2.92 1.53,-1.01 3,-2.06 4.4,-3.13l0.56 -0.42c-2.41,-8.24 -5.83,-15.72 -9.75,-22.32 -4.02,-7.09 -9.15,-14.18 -15.63,-20.68l0 -0 -0 -0c-5.39,-5.41 -11.71,-10.42 -19.08,-14.67l-1.13 -0.64 -0.01 0c-43.23,-24.15 -90.29,-4.7 -94.38,2.39zm119.12 69.74c-7.93,3.06 -16.21,4.79 -24.74,4.9 -8.28,-0.11 -16.31,-1.74 -24.03,-4.63 -0.25,1.82 -0.44,3.65 -0.57,5.5 -0.14,1.99 -0.21,4.03 -0.21,6.11 0,1.9 0.06,3.76 0.17,5.55 0.11,1.83 0.28,3.62 0.51,5.38l0.09 0.7c8.24,2.01 16.32,2.78 23.91,2.72l0.25 0c8.16,0.07 16.89,-0.83 25.77,-3.19l0 0 0 -0c7.38,-1.96 14.88,-4.93 22.25,-9.19l1.12 -0.66 0 -0.01c42.53,-25.36 49.21,-75.84 45.12,-82.93 -4.03,-6.99 -49.81,-25.99 -92.52,-3.4l0.17 0.1 0 -0.01c3.63,2.09 7.03,4.39 10.21,6.84 3.36,2.58 6.43,5.3 9.24,8.12l0.54 0.54c10.02,-3.9 20.59,-5.69 31.54,-4.77 4.71,0.4 16.9,2.14 18.74,5.32 1.84,3.19 -2.75,14.62 -4.76,18.89 -4.96,10.54 -12.33,19.19 -21.42,26.13l-0 0c-2.93,2.24 -6.04,4.29 -9.31,6.18 -3.6,2.08 -8.29,4.28 -12.06,5.8zm0.88 24.96c-1.63,10.63 -5.37,20.67 -11.64,29.69 -2.7,3.88 -10.3,13.57 -13.98,13.57 -3.68,0 -11.28,-9.69 -13.98,-13.57 -6.65,-9.56 -10.45,-20.27 -11.91,-31.62l-0 -0c-0.47,-3.66 -0.7,-7.38 -0.7,-11.15 0,-4.16 0.44,-9.32 1.01,-13.34 1.32,-8.41 3.96,-16.44 8.13,-23.89 4.23,-7.11 9.66,-13.25 16.02,-18.48 -1.45,-1.13 -2.95,-2.21 -4.48,-3.24 -1.65,-1.11 -3.39,-2.19 -5.19,-3.23 -1.65,-0.95 -3.28,-1.83 -4.89,-2.63 -1.64,-0.82 -3.28,-1.57 -4.91,-2.25l-0.65 -0.27c-5.85,6.12 -10.56,12.72 -14.29,19.32 -4.2,7.09 -7.84,15.18 -10.26,24.16l-0 -0 0 0c-1.99,7.38 -3.17,15.35 -3.17,23.86l0.01 1.3 0.01 0c0.7,49.52 41.08,80.54 49.26,80.54 8.07,0 47.41,-30.14 49.2,-78.43l-0.17 0.1 0 0.01c-3.63,2.09 -7.32,3.89 -11.03,5.43 -3.91,1.62 -7.81,2.91 -11.65,3.94l-0.74 0.2z"/>
  </g>
 </g>
</svg>
